<svg width="120" height="120" viewBox="0 0 120 120" xmlns="http://www.w3.org/2000/svg">
  <!-- Beige background with circular clipping -->
  <circle cx="60" cy="60" r="60" fill="#e2cca0" />
  
  <!-- Sieve logo elements in brown -->
  <g fill="#a05a2c">
    <!-- Bowl/strainer -->
    <path d="M30 80 C30 95, 90 95, 90 80 L90 70 C90 85, 30 85, 30 70 Z" />
    
    <!-- Grid inside bowl -->
    <path d="M35 75 L85 75" stroke="#a05a2c" stroke-width="2" fill="none" />
    <path d="M45 70 L45 80" stroke="#a05a2c" stroke-width="2" fill="none" />
    <path d="M60 70 L60 80" stroke="#a05a2c" stroke-width="2" fill="none" />
    <path d="M75 70 L75 80" stroke="#a05a2c" stroke-width="2" fill="none" />
    
    <!-- Funnel/filter shape -->
    <path d="M45 55 L35 35 L60 55 Z" />
    <path d="M75 55 L85 35 L60 55 Z" />
    
    <!-- Particles/dots -->
    <circle cx="60" cy="30" r="4" />
    <circle cx="50" cy="35" r="4" />
    <circle cx="70" cy="35" r="4" />
    <circle cx="45" cy="45" r="4" />
    <circle cx="60" cy="42" r="4" />
    <circle cx="75" cy="45" r="4" />
    <circle cx="55" cy="52" r="4" />
    <circle cx="65" cy="50" r="4" />
  </g>
</svg> 